<?xml version="1.0" encoding="UTF-8"?><svg id="a" xmlns="http://www.w3.org/2000/svg" viewBox="0 0 187.5 187.5"><defs><style>.b{fill:#efe0da;}.c{fill:#d23000;}.d{fill:#fcc;}.e{fill:#e492a7;}.f{fill:#3874b5;}.g{fill:#eeb845;}</style></defs><path class="f" d="M125.5,59.5c-1-9-12-29-31-31-20,0-39,0-43,0-5,1-8,3-10,8-1,1,0,86,0,90s6,18,12,23,16.18,10,21.09,10,50.91,0,50.91,0c0,0,1-48,0-53s-4.74-10.82-8.87-12.41-26.13-7.59-26.13-7.59l62.22,.41v99.59s-80.22,0-77.22,0-27-1-44-21S14.5,125.24,14.5,125.24V32.5c0-3,2-13,10-21S40.5,2.5,42.5,2.5s50.97-1.85,60,0c30,6,47,35,49,51s.96,22,.96,22h-26.96s1-7,0-16Z"/><path class="b" d="M52,35c.31-1.55,6.5-2.5,10.93,0,1.57,17.5-.43,37.5,1.57,56.5,.21,2.03,2,34,1,44-.6,6.01-9,5-11,3s-4.5-21.5-4.5-49.5,.5-46.5,2-54Z"/><path class="d" d="M52,36s3-3,7-3,5,4,5,4c0,0-5,17,1,28s13,20,13,20c0,0,32,15.04,33,15.02s6,3.98,7,4.98,3,6,3,7-1,5-2,7-6,9-6,9c0,0-2,2-6,4-2,1-4,2-5,2l-5,2-7,3-6.39,.49s-5.61-.49-6.61-1.49l-7-7-6-10-5-13-4-15-2-19-1-38Z"/><path class="e" d="M93,102s17.24-2,18.24-2.02,6,3.98,7,4.98,3,6,3,7-1,5-2,7-6,9-6,9c0,0-2,2-6,4-2,1-4,2-5,2l-5,2-7.24,2.04h-6s-5-1-6-2l-5-5-3-7,2-9,7-6,14-7Z"/><path class="c" d="M53,36s1.5-2.5,2-3,2-1,2-1v4l-1,24s1.5,1.5,2,3,.5,5.5,.5,5.5v7c0,1,0,6,.5,7.5s2.5,5.5,3,7,5.5,7.5,7,8,5.5-1.5,7-1,2.81,.5,3.66,1,9.34,4,9.34,4c0,0-2,1-2.5,.5s-9.5-3.5-9.5-3.5c0,0-4.5,.5-5.5,1.5s.5,5.5,.5,5.5l1,5-2.5-3.5s0-5-1-6l-8.5-8.5s-.5,1.5-1,4,.5,5.5,1.5,7.5,1.5,4.5,1.5,4.5c0,0-1.5-.5-2-1s0-3-.5-3.5-1.5,2.5-1.5,2.5c0,0-.41-10.25-.5-12.5s2-2,1-4-2-6-2-6l-1-20-1,10s-2,1-3,0,.5-38.5,.5-38.5Z"/><path class="g" d="M60,33s-1,7-1,11,1.5,17.83,1,20.67-3,2.18-1,13.26,2-9.92,2-9.92l6,15,2.64,10.75s5.45-.34,0-9.88c-1.64-2.87,10.36,7.13,10.36,7.13l9.5,6.5,10,5c2,1,7,12,7,12l-5-4c-1,4,5,6.28,5,6.28,1,.28,1,1.72,1,3.72s3.5,4.05,3.5,4.05l-2.5-6.05c1-1,6,5,6,5l1-2-5-4,8,1v-1.95s-8-.05-9-1.05-3-7-3-7c0,0-2-5-4-6s-15-9-15-9c0,0-14-12-16-12s-4,2-9-17-1-31-1-31l-1.5-.5Z"/></svg>