<svg width="800" height="110" viewBox="0 0 800 110" fill="none" xmlns="http://www.w3.org/2000/svg">
<path d="M242.07 60.5312C240.172 62.8047 237.488 64.5742 234.02 65.8398C230.551 67.082 226.707 67.7031 222.488 67.7031C218.059 67.7031 214.168 66.7422 210.816 64.8203C207.488 62.875 204.91 60.0625 203.082 56.3828C201.277 52.7031 200.352 48.3789 200.305 43.4102V39.9297C200.305 34.8203 201.16 30.4023 202.871 26.6758C204.605 22.9258 207.09 20.0664 210.324 18.0977C213.582 16.1055 217.391 15.1094 221.75 15.1094C227.82 15.1094 232.566 16.5625 235.988 19.4688C239.41 22.3516 241.438 26.5586 242.07 32.0898H231.805C231.336 29.1602 230.293 27.0156 228.676 25.6562C227.082 24.2969 224.879 23.6172 222.066 23.6172C218.48 23.6172 215.75 24.9648 213.875 27.6602C212 30.3555 211.051 34.3633 211.027 39.6836V42.9531C211.027 48.3203 212.047 52.375 214.086 55.1172C216.125 57.8594 219.113 59.2305 223.051 59.2305C227.012 59.2305 229.836 58.3867 231.523 56.6992V47.875H221.926V40.1055H242.07V60.5312ZM271.355 38.4883C269.973 38.3008 268.754 38.207 267.699 38.207C263.855 38.207 261.336 39.5078 260.141 42.1094V67H249.98V28.9609H259.578L259.859 33.4961C261.898 30.0039 264.723 28.2578 268.332 28.2578C269.457 28.2578 270.512 28.4102 271.496 28.7148L271.355 38.4883ZM297.266 67C296.797 66.0859 296.457 64.9492 296.246 63.5898C293.785 66.332 290.586 67.7031 286.648 67.7031C282.922 67.7031 279.828 66.625 277.367 64.4688C274.93 62.3125 273.711 59.5938 273.711 56.3125C273.711 52.2812 275.199 49.1875 278.176 47.0312C281.176 44.875 285.5 43.7852 291.148 43.7617H295.824V41.582C295.824 39.8242 295.367 38.418 294.453 37.3633C293.562 36.3086 292.145 35.7812 290.199 35.7812C288.488 35.7812 287.141 36.1914 286.156 37.0117C285.195 37.832 284.715 38.957 284.715 40.3867H274.555C274.555 38.1836 275.234 36.1445 276.594 34.2695C277.953 32.3945 279.875 30.9297 282.359 29.875C284.844 28.7969 287.633 28.2578 290.727 28.2578C295.414 28.2578 299.129 29.4414 301.871 31.8086C304.637 34.1523 306.02 37.457 306.02 41.7227V58.2109C306.043 61.8203 306.547 64.5508 307.531 66.4023V67H297.266ZM288.863 59.9336C290.363 59.9336 291.746 59.6055 293.012 58.9492C294.277 58.2695 295.215 57.3672 295.824 56.2422V49.7031H292.027C286.941 49.7031 284.234 51.4609 283.906 54.9766L283.871 55.5742C283.871 56.8398 284.316 57.8828 285.207 58.7031C286.098 59.5234 287.316 59.9336 288.863 59.9336ZM327.465 52.6211L334.496 28.9609H345.395L330.102 72.9062L329.258 74.9102C326.984 79.8789 323.234 82.3633 318.008 82.3633C316.531 82.3633 315.031 82.1406 313.508 81.6953V73.9961L315.055 74.0312C316.977 74.0312 318.406 73.7383 319.344 73.1523C320.305 72.5664 321.055 71.5938 321.594 70.2344L322.789 67.1055L309.465 28.9609H320.398L327.465 52.6211ZM370.004 56.4883C370.004 55.2461 369.383 54.2734 368.141 53.5703C366.922 52.8438 364.953 52.1992 362.234 51.6367C353.188 49.7383 348.664 45.8945 348.664 40.1055C348.664 36.7305 350.059 33.918 352.848 31.668C355.66 29.3945 359.328 28.2578 363.852 28.2578C368.68 28.2578 372.535 29.3945 375.418 31.668C378.324 33.9414 379.777 36.8945 379.777 40.5273H369.617C369.617 39.0742 369.148 37.8789 368.211 36.9414C367.273 35.9805 365.809 35.5 363.816 35.5C362.105 35.5 360.781 35.8867 359.844 36.6602C358.906 37.4336 358.438 38.418 358.438 39.6133C358.438 40.7383 358.965 41.6523 360.02 42.3555C361.098 43.0352 362.902 43.6328 365.434 44.1484C367.965 44.6406 370.098 45.2031 371.832 45.8359C377.199 47.8047 379.883 51.2148 379.883 56.0664C379.883 59.5352 378.395 62.3477 375.418 64.5039C372.441 66.6367 368.598 67.7031 363.887 67.7031C360.699 67.7031 357.863 67.1406 355.379 66.0156C352.918 64.8672 350.984 63.3086 349.578 61.3398C348.172 59.3477 347.469 57.2031 347.469 54.9062H357.102C357.195 56.7109 357.863 58.0938 359.105 59.0547C360.348 60.0156 362.012 60.4961 364.098 60.4961C366.043 60.4961 367.508 60.1328 368.492 59.4062C369.5 58.6562 370.004 57.6836 370.004 56.4883ZM384.875 47.6289C384.875 43.8555 385.602 40.4922 387.055 37.5391C388.508 34.5859 390.594 32.3008 393.312 30.6836C396.055 29.0664 399.23 28.2578 402.84 28.2578C407.973 28.2578 412.156 29.8281 415.391 32.9688C418.648 36.1094 420.465 40.375 420.84 45.7656L420.91 48.3672C420.91 54.2031 419.281 58.8906 416.023 62.4297C412.766 65.9453 408.395 67.7031 402.91 67.7031C397.426 67.7031 393.043 65.9453 389.762 62.4297C386.504 58.9141 384.875 54.1328 384.875 48.0859V47.6289ZM395.035 48.3672C395.035 51.9766 395.715 54.7422 397.074 56.6641C398.434 58.5625 400.379 59.5117 402.91 59.5117C405.371 59.5117 407.293 58.5742 408.676 56.6992C410.059 54.8008 410.75 51.7773 410.75 47.6289C410.75 44.0898 410.059 41.3477 408.676 39.4023C407.293 37.457 405.348 36.4844 402.84 36.4844C400.355 36.4844 398.434 37.457 397.074 39.4023C395.715 41.3242 395.035 44.3125 395.035 48.3672ZM436.52 28.9609L436.836 33.3555C439.555 29.957 443.199 28.2578 447.77 28.2578C451.801 28.2578 454.801 29.4414 456.77 31.8086C458.738 34.1758 459.746 37.7148 459.793 42.4258V67H449.633V42.6719C449.633 40.5156 449.164 38.957 448.227 37.9961C447.289 37.0117 445.73 36.5195 443.551 36.5195C440.691 36.5195 438.547 37.7383 437.117 40.1758V67H426.957V28.9609H436.52Z" fill="#3474B6"/>
<path d="M495.652 59.8984H518.891V67H486.758V15.8125H495.652V59.8984ZM547.613 67C547.238 66.2734 546.91 65.0898 546.629 63.4492C543.91 66.2852 540.582 67.7031 536.645 67.7031C532.824 67.7031 529.707 66.6133 527.293 64.4336C524.879 62.2539 523.672 59.5586 523.672 56.3477C523.672 52.293 525.172 49.1875 528.172 47.0312C531.195 44.8516 535.508 43.7617 541.109 43.7617H546.348V41.2656C546.348 39.2969 545.797 37.7266 544.695 36.5547C543.594 35.3594 541.918 34.7617 539.668 34.7617C537.723 34.7617 536.129 35.2539 534.887 36.2383C533.645 37.1992 533.023 38.4297 533.023 39.9297H524.48C524.48 37.8438 525.172 35.8984 526.555 34.0938C527.938 32.2656 529.812 30.8359 532.18 29.8047C534.57 28.7734 537.23 28.2578 540.16 28.2578C544.613 28.2578 548.164 29.3828 550.812 31.6328C553.461 33.8594 554.82 37 554.891 41.0547V58.2109C554.891 61.6328 555.371 64.3633 556.332 66.4023V67H547.613ZM538.227 60.8477C539.914 60.8477 541.496 60.4375 542.973 59.6172C544.473 58.7969 545.598 57.6953 546.348 56.3125V49.1406H541.742C538.578 49.1406 536.199 49.6914 534.605 50.793C533.012 51.8945 532.215 53.4531 532.215 55.4688C532.215 57.1094 532.754 58.4219 533.832 59.4062C534.934 60.3672 536.398 60.8477 538.227 60.8477ZM597.219 48.3672C597.219 54.2734 595.895 58.9727 593.246 62.4648C590.621 65.957 587 67.7031 582.383 67.7031C577.93 67.7031 574.461 66.0977 571.977 62.8867L571.555 67H563.82V13H572.363V32.6172C574.824 29.7109 578.141 28.2578 582.312 28.2578C586.953 28.2578 590.598 29.9805 593.246 33.4258C595.895 36.8711 597.219 41.6875 597.219 47.875V48.3672ZM588.676 47.6289C588.676 43.5039 587.949 40.4102 586.496 38.3477C585.043 36.2852 582.934 35.2539 580.168 35.2539C576.465 35.2539 573.863 36.8711 572.363 40.1055V55.7852C573.887 59.0898 576.512 60.7422 580.238 60.7422C582.91 60.7422 584.973 59.7461 586.426 57.7539C587.879 55.7617 588.629 52.75 588.676 48.7188V47.6289Z" fill="black"/>
<path d="M129.184 97.7539H122.422V104H121.027V90.3477H130.168V91.5547H122.422V96.5586H129.184V97.7539ZM143.539 97.8594C143.539 99.7812 143.02 101.316 141.98 102.465C140.941 103.613 139.547 104.188 137.797 104.188C136.055 104.188 134.656 103.609 133.602 102.453C132.555 101.297 132.031 99.7461 132.031 97.8008V96.5117C132.031 95.2539 132.266 94.1445 132.734 93.1836C133.203 92.2227 133.875 91.4805 134.75 90.957C135.633 90.4258 136.641 90.1602 137.773 90.1602C139.469 90.1602 140.84 90.7148 141.887 91.8242C142.941 92.9258 143.492 94.4102 143.539 96.2773V97.8594ZM142.156 96.4883C142.156 94.8945 141.762 93.6484 140.973 92.75C140.191 91.8438 139.125 91.3906 137.773 91.3906C136.438 91.3906 135.375 91.8438 134.586 92.75C133.805 93.6484 133.414 94.918 133.414 96.5586V97.8594C133.414 99.4453 133.809 100.695 134.598 101.609C135.387 102.523 136.453 102.98 137.797 102.98C139.156 102.98 140.223 102.527 140.996 101.621C141.77 100.715 142.156 99.4453 142.156 97.8125V96.4883ZM152.117 98.5156H147.969V104H146.574V90.3477H151.414C152.984 90.3477 154.211 90.7148 155.094 91.4492C155.984 92.1836 156.43 93.1914 156.43 94.4727C156.43 95.3711 156.156 96.1562 155.609 96.8281C155.062 97.4922 154.34 97.9492 153.441 98.1992L157.051 103.883V104H155.551L152.117 98.5156ZM147.969 97.3203H151.672C152.688 97.3203 153.5 97.0586 154.109 96.5352C154.719 96.0117 155.023 95.3359 155.023 94.5078C155.023 93.5938 154.707 92.875 154.074 92.3516C153.449 91.8281 152.574 91.5625 151.449 91.5547H147.969V97.3203ZM176.07 99.6992C175.906 101.145 175.348 102.254 174.395 103.027C173.449 103.801 172.191 104.188 170.621 104.188C168.965 104.188 167.621 103.629 166.59 102.512C165.566 101.395 165.055 99.8555 165.055 97.8945V96.3945C165.055 95.1602 165.285 94.0703 165.746 93.125C166.215 92.1719 166.875 91.4414 167.727 90.9336C168.578 90.418 169.566 90.1602 170.691 90.1602C172.254 90.1602 173.5 90.5547 174.43 91.3438C175.359 92.125 175.906 93.2383 176.07 94.6836H174.664C174.523 93.6211 174.137 92.8047 173.504 92.2344C172.871 91.6562 171.934 91.3672 170.691 91.3672C169.379 91.3672 168.344 91.8125 167.586 92.7031C166.828 93.5938 166.449 94.8359 166.449 96.4297V97.9766C166.449 99.5312 166.82 100.758 167.562 101.656C168.312 102.555 169.332 103.004 170.621 103.004C171.879 103.004 172.828 102.73 173.469 102.184C174.117 101.637 174.516 100.809 174.664 99.6992H176.07ZM184.508 98.5156H180.359V104H178.965V90.3477H183.805C185.375 90.3477 186.602 90.7148 187.484 91.4492C188.375 92.1836 188.82 93.1914 188.82 94.4727C188.82 95.3711 188.547 96.1562 188 96.8281C187.453 97.4922 186.73 97.9492 185.832 98.1992L189.441 103.883V104H187.941L184.508 98.5156ZM180.359 97.3203H184.062C185.078 97.3203 185.891 97.0586 186.5 96.5352C187.109 96.0117 187.414 95.3359 187.414 94.5078C187.414 93.5938 187.098 92.875 186.465 92.3516C185.84 91.8281 184.965 91.5625 183.84 91.5547H180.359V97.3203ZM200.129 100.355H193.508L192.055 104H190.602L196.156 90.3477H197.504L203.012 104H201.57L200.129 100.355ZM193.977 99.1602H199.648L196.824 92.0234L193.977 99.1602ZM216.137 104H214.742L206.516 92.5508V104H205.121V90.3477H206.516L214.742 101.797V90.3477H216.137V104ZM221.422 104H220.016V90.3477H221.422V104ZM236.234 97.8594C236.234 99.7812 235.715 101.316 234.676 102.465C233.637 103.613 232.242 104.188 230.492 104.188C228.75 104.188 227.352 103.609 226.297 102.453C225.25 101.297 224.727 99.7461 224.727 97.8008V96.5117C224.727 95.2539 224.961 94.1445 225.43 93.1836C225.898 92.2227 226.57 91.4805 227.445 90.957C228.328 90.4258 229.336 90.1602 230.469 90.1602C232.164 90.1602 233.535 90.7148 234.582 91.8242C235.637 92.9258 236.188 94.4102 236.234 96.2773V97.8594ZM234.852 96.4883C234.852 94.8945 234.457 93.6484 233.668 92.75C232.887 91.8438 231.82 91.3906 230.469 91.3906C229.133 91.3906 228.07 91.8438 227.281 92.75C226.5 93.6484 226.109 94.918 226.109 96.5586V97.8594C226.109 99.4453 226.504 100.695 227.293 101.609C228.082 102.523 229.148 102.98 230.492 102.98C231.852 102.98 232.918 102.527 233.691 101.621C234.465 100.715 234.852 99.4453 234.852 97.8125V96.4883ZM247.449 97.7539H240.688V104H239.293V90.3477H248.434V91.5547H240.688V96.5586H247.449V97.7539ZM258.863 100.355H252.242L250.789 104H249.336L254.891 90.3477H256.238L261.746 104H260.305L258.863 100.355ZM252.711 99.1602H258.383L255.559 92.0234L252.711 99.1602ZM274.18 99.6992C274.016 101.145 273.457 102.254 272.504 103.027C271.559 103.801 270.301 104.188 268.73 104.188C267.074 104.188 265.73 103.629 264.699 102.512C263.676 101.395 263.164 99.8555 263.164 97.8945V96.3945C263.164 95.1602 263.395 94.0703 263.855 93.125C264.324 92.1719 264.984 91.4414 265.836 90.9336C266.688 90.418 267.676 90.1602 268.801 90.1602C270.363 90.1602 271.609 90.5547 272.539 91.3438C273.469 92.125 274.016 93.2383 274.18 94.6836H272.773C272.633 93.6211 272.246 92.8047 271.613 92.2344C270.98 91.6562 270.043 91.3672 268.801 91.3672C267.488 91.3672 266.453 91.8125 265.695 92.7031C264.938 93.5938 264.559 94.8359 264.559 96.4297V97.9766C264.559 99.5312 264.93 100.758 265.672 101.656C266.422 102.555 267.441 103.004 268.73 103.004C269.988 103.004 270.938 102.73 271.578 102.184C272.227 101.637 272.625 100.809 272.773 99.6992H274.18ZM278.773 104H277.367V90.3477H278.773V104ZM290.645 100.355H284.023L282.57 104H281.117L286.672 90.3477H288.02L293.527 104H292.086L290.645 100.355ZM284.492 99.1602H290.164L287.34 92.0234L284.492 99.1602ZM297.031 102.816H304.203V104H295.637V90.3477H297.031V102.816ZM316.402 104.211C315.074 104.211 314.004 103.902 313.191 103.285C312.379 102.66 311.973 101.824 311.973 100.777C311.973 100.129 312.129 99.543 312.441 99.0195C312.762 98.4883 313.32 97.9297 314.117 97.3438L315.184 96.5703C314.348 95.7344 313.797 95.0781 313.531 94.6016C313.273 94.1172 313.145 93.625 313.145 93.125C313.145 92.2422 313.453 91.5273 314.07 90.9805C314.695 90.4336 315.516 90.1602 316.531 90.1602C317.523 90.1602 318.324 90.4336 318.934 90.9805C319.551 91.5273 319.859 92.207 319.859 93.0195C319.859 94.0664 319.223 95.0547 317.949 95.9844L316.988 96.6875L321.031 100.812C321.719 99.8281 322.062 98.6836 322.062 97.3789H323.375C323.375 98.9727 322.879 100.406 321.887 101.68L324.16 104H322.508L321.09 102.559C319.84 103.66 318.277 104.211 316.402 104.211ZM316.508 103.016C317.969 103.016 319.207 102.574 320.223 101.691L316.004 97.4023L314.938 98.1758C314.391 98.5742 313.992 98.9609 313.742 99.3359C313.492 99.7109 313.367 100.145 313.367 100.637C313.367 101.34 313.641 101.914 314.188 102.359C314.742 102.797 315.516 103.016 316.508 103.016ZM314.527 93.1836C314.527 93.5352 314.641 93.9023 314.867 94.2852C315.094 94.668 315.527 95.1914 316.168 95.8555L317.211 95.1055C318.047 94.5039 318.465 93.8359 318.465 93.1016C318.465 92.6094 318.285 92.1992 317.926 91.8711C317.574 91.543 317.094 91.3789 316.484 91.3789C315.906 91.3789 315.434 91.5508 315.066 91.8945C314.707 92.2383 314.527 92.668 314.527 93.1836ZM343.695 97.8594C343.695 99.7812 343.176 101.316 342.137 102.465C341.098 103.613 339.703 104.188 337.953 104.188C336.211 104.188 334.812 103.609 333.758 102.453C332.711 101.297 332.188 99.7461 332.188 97.8008V96.5117C332.188 95.2539 332.422 94.1445 332.891 93.1836C333.359 92.2227 334.031 91.4805 334.906 90.957C335.789 90.4258 336.797 90.1602 337.93 90.1602C339.625 90.1602 340.996 90.7148 342.043 91.8242C343.098 92.9258 343.648 94.4102 343.695 96.2773V97.8594ZM342.312 96.4883C342.312 94.8945 341.918 93.6484 341.129 92.75C340.348 91.8438 339.281 91.3906 337.93 91.3906C336.594 91.3906 335.531 91.8438 334.742 92.75C333.961 93.6484 333.57 94.918 333.57 96.5586V97.8594C333.57 99.4453 333.965 100.695 334.754 101.609C335.543 102.523 336.609 102.98 337.953 102.98C339.312 102.98 340.379 102.527 341.152 101.621C341.926 100.715 342.312 99.4453 342.312 97.8125V96.4883ZM352.273 98.5156H348.125V104H346.73V90.3477H351.57C353.141 90.3477 354.367 90.7148 355.25 91.4492C356.141 92.1836 356.586 93.1914 356.586 94.4727C356.586 95.3711 356.312 96.1562 355.766 96.8281C355.219 97.4922 354.496 97.9492 353.598 98.1992L357.207 103.883V104H355.707L352.273 98.5156ZM348.125 97.3203H351.828C352.844 97.3203 353.656 97.0586 354.266 96.5352C354.875 96.0117 355.18 95.3359 355.18 94.5078C355.18 93.5938 354.863 92.875 354.23 92.3516C353.605 91.8281 352.73 91.5625 351.605 91.5547H348.125V97.3203ZM369.805 91.5547H364.812V104H363.418V91.5547H358.438V90.3477H369.805V91.5547ZM383.094 104H381.699V97.8594H373.531V104H372.137V90.3477H373.531V96.6641H381.699V90.3477H383.094V104ZM397.648 97.8594C397.648 99.7812 397.129 101.316 396.09 102.465C395.051 103.613 393.656 104.188 391.906 104.188C390.164 104.188 388.766 103.609 387.711 102.453C386.664 101.297 386.141 99.7461 386.141 97.8008V96.5117C386.141 95.2539 386.375 94.1445 386.844 93.1836C387.312 92.2227 387.984 91.4805 388.859 90.957C389.742 90.4258 390.75 90.1602 391.883 90.1602C393.578 90.1602 394.949 90.7148 395.996 91.8242C397.051 92.9258 397.602 94.4102 397.648 96.2773V97.8594ZM396.266 96.4883C396.266 94.8945 395.871 93.6484 395.082 92.75C394.301 91.8438 393.234 91.3906 391.883 91.3906C390.547 91.3906 389.484 91.8438 388.695 92.75C387.914 93.6484 387.523 94.918 387.523 96.5586V97.8594C387.523 99.4453 387.918 100.695 388.707 101.609C389.496 102.523 390.562 102.98 391.906 102.98C393.266 102.98 394.332 102.527 395.105 101.621C395.879 100.715 396.266 99.4453 396.266 97.8125V96.4883ZM402.102 98.5742V104H400.707V90.3477H405.758C407.312 90.3477 408.535 90.7227 409.426 91.4727C410.316 92.2227 410.762 93.2344 410.762 94.5078C410.762 95.7891 410.328 96.7852 409.461 97.4961C408.594 98.207 407.375 98.5664 405.805 98.5742H402.102ZM402.102 97.3789H405.758C406.906 97.3789 407.789 97.1328 408.406 96.6406C409.031 96.1406 409.344 95.4375 409.344 94.5312C409.344 93.6094 409.027 92.8828 408.395 92.3516C407.762 91.8203 406.887 91.5547 405.77 91.5547H402.102V97.3789ZM421.449 100.355H414.828L413.375 104H411.922L417.477 90.3477H418.824L424.332 104H422.891L421.449 100.355ZM415.297 99.1602H420.969L418.145 92.0234L415.297 99.1602ZM434.598 97.5195H427.836V102.816H435.629V104H426.441V90.3477H435.582V91.5547H427.836V96.3242H434.598V97.5195ZM438.16 104V90.3477H442.309C443.512 90.3477 444.59 90.6055 445.543 91.1211C446.496 91.6367 447.238 92.3672 447.77 93.3125C448.309 94.25 448.586 95.3086 448.602 96.4883V97.7656C448.602 98.9766 448.34 100.055 447.816 101C447.301 101.938 446.562 102.668 445.602 103.191C444.648 103.715 443.559 103.984 442.332 104H438.16ZM439.555 91.5547V102.816H442.227C443.742 102.816 444.949 102.359 445.848 101.445C446.754 100.531 447.207 99.2812 447.207 97.6953V96.582C447.207 95.0586 446.766 93.8398 445.883 92.9258C445 92.0117 443.797 91.5547 442.273 91.5547H439.555ZM453.336 104H451.93V90.3477H453.336V104ZM467.703 99.6992C467.539 101.145 466.98 102.254 466.027 103.027C465.082 103.801 463.824 104.188 462.254 104.188C460.598 104.188 459.254 103.629 458.223 102.512C457.199 101.395 456.688 99.8555 456.688 97.8945V96.3945C456.688 95.1602 456.918 94.0703 457.379 93.125C457.848 92.1719 458.508 91.4414 459.359 90.9336C460.211 90.418 461.199 90.1602 462.324 90.1602C463.887 90.1602 465.133 90.5547 466.062 91.3438C466.992 92.125 467.539 93.2383 467.703 94.6836H466.297C466.156 93.6211 465.77 92.8047 465.137 92.2344C464.504 91.6562 463.566 91.3672 462.324 91.3672C461.012 91.3672 459.977 91.8125 459.219 92.7031C458.461 93.5938 458.082 94.8359 458.082 96.4297V97.9766C458.082 99.5312 458.453 100.758 459.195 101.656C459.945 102.555 460.965 103.004 462.254 103.004C463.512 103.004 464.461 102.73 465.102 102.184C465.75 101.637 466.148 100.809 466.297 99.6992H467.703ZM486.523 91.5547H481.531V104H480.137V91.5547H475.156V90.3477H486.523V91.5547ZM490.531 104H489.125V90.3477H490.531V104ZM502.66 100.613C502.66 99.918 502.402 99.3594 501.887 98.9375C501.371 98.5156 500.41 98.1289 499.004 97.7773C497.605 97.418 496.574 97.0586 495.91 96.6992C495.246 96.3398 494.75 95.9219 494.422 95.4453C494.102 94.9609 493.941 94.3906 493.941 93.7344C493.941 92.6797 494.402 91.8203 495.324 91.1562C496.246 90.4922 497.445 90.1602 498.922 90.1602C500.406 90.1602 501.621 90.5469 502.566 91.3203C503.512 92.0859 503.984 93.0703 503.984 94.2734H502.578C502.578 93.3906 502.242 92.6836 501.57 92.1523C500.898 91.6211 500.012 91.3555 498.91 91.3555C497.824 91.3555 496.957 91.5742 496.309 92.0117C495.66 92.4492 495.336 93.0195 495.336 93.7227C495.336 94.3711 495.621 94.9023 496.191 95.3164C496.762 95.7227 497.707 96.0938 499.027 96.4297C500.355 96.7656 501.355 97.1172 502.027 97.4844C502.707 97.8516 503.219 98.293 503.562 98.8086C503.906 99.3164 504.078 99.9141 504.078 100.602C504.078 101.695 503.605 102.566 502.66 103.215C501.723 103.863 500.5 104.188 498.992 104.188C497.961 104.188 497.023 104.023 496.18 103.695C495.336 103.359 494.672 102.883 494.188 102.266C493.711 101.641 493.473 100.898 493.473 100.039H494.879C494.879 100.969 495.246 101.699 495.98 102.23C496.723 102.754 497.727 103.016 498.992 103.016C500.102 103.016 500.988 102.797 501.652 102.359C502.324 101.914 502.66 101.332 502.66 100.613ZM514.941 100.613C514.941 99.918 514.684 99.3594 514.168 98.9375C513.652 98.5156 512.691 98.1289 511.285 97.7773C509.887 97.418 508.855 97.0586 508.191 96.6992C507.527 96.3398 507.031 95.9219 506.703 95.4453C506.383 94.9609 506.223 94.3906 506.223 93.7344C506.223 92.6797 506.684 91.8203 507.605 91.1562C508.527 90.4922 509.727 90.1602 511.203 90.1602C512.688 90.1602 513.902 90.5469 514.848 91.3203C515.793 92.0859 516.266 93.0703 516.266 94.2734H514.859C514.859 93.3906 514.523 92.6836 513.852 92.1523C513.18 91.6211 512.293 91.3555 511.191 91.3555C510.105 91.3555 509.238 91.5742 508.59 92.0117C507.941 92.4492 507.617 93.0195 507.617 93.7227C507.617 94.3711 507.902 94.9023 508.473 95.3164C509.043 95.7227 509.988 96.0938 511.309 96.4297C512.637 96.7656 513.637 97.1172 514.309 97.4844C514.988 97.8516 515.5 98.293 515.844 98.8086C516.188 99.3164 516.359 99.9141 516.359 100.602C516.359 101.695 515.887 102.566 514.941 103.215C514.004 103.863 512.781 104.188 511.273 104.188C510.242 104.188 509.305 104.023 508.461 103.695C507.617 103.359 506.953 102.883 506.469 102.266C505.992 101.641 505.754 100.898 505.754 100.039H507.16C507.16 100.969 507.527 101.699 508.262 102.23C509.004 102.754 510.008 103.016 511.273 103.016C512.383 103.016 513.27 102.797 513.934 102.359C514.605 101.914 514.941 101.332 514.941 100.613ZM529.168 90.3477V99.5586C529.168 100.98 528.699 102.109 527.762 102.945C526.824 103.773 525.559 104.188 523.965 104.188C522.379 104.188 521.121 103.785 520.191 102.98C519.262 102.168 518.785 101.059 518.762 99.6523V90.3477H520.145V99.5586C520.145 100.637 520.484 101.48 521.164 102.09C521.852 102.699 522.785 103.004 523.965 103.004C525.137 103.004 526.062 102.707 526.742 102.113C527.422 101.512 527.766 100.672 527.773 99.5938V90.3477H529.168ZM540.723 97.5195H533.961V102.816H541.754V104H532.566V90.3477H541.707V91.5547H533.961V96.3242H540.723V97.5195ZM558.277 97.5195H551.516V102.816H559.309V104H550.121V90.3477H559.262V91.5547H551.516V96.3242H558.277V97.5195ZM572.855 104H571.461L563.234 92.5508V104H561.84V90.3477H563.234L571.461 101.797V90.3477H572.855V104ZM587.152 102.371C586.848 102.777 586.391 103.129 585.781 103.426C584.727 103.934 583.469 104.188 582.008 104.188C580.234 104.188 578.801 103.613 577.707 102.465C576.613 101.316 576.066 99.7773 576.066 97.8477V96.3711C576.066 94.4805 576.582 92.9727 577.613 91.8477C578.645 90.7227 580.039 90.1602 581.797 90.1602C583.328 90.1602 584.551 90.5195 585.465 91.2383C586.387 91.957 586.945 92.9727 587.141 94.2852H585.746C585.574 93.3086 585.148 92.5781 584.469 92.0938C583.789 91.6094 582.902 91.3672 581.809 91.3672C580.465 91.3672 579.406 91.8086 578.633 92.6914C577.859 93.5742 577.473 94.8047 577.473 96.3828V97.9062C577.473 99.4531 577.883 100.691 578.703 101.621C579.523 102.543 580.629 103.004 582.02 103.004C582.824 103.004 583.559 102.91 584.223 102.723C584.895 102.527 585.406 102.254 585.758 101.902V98.5625H581.902V97.4141H587.152V102.371ZM592.227 104H590.82V90.3477H592.227V104ZM607.121 104H605.727L597.5 92.5508V104H596.105V90.3477H597.5L605.727 101.797V90.3477H607.121V104ZM618.887 97.5195H612.125V102.816H619.918V104H610.73V90.3477H619.871V91.5547H612.125V96.3242H618.887V97.5195ZM630.605 97.5195H623.844V102.816H631.637V104H622.449V90.3477H631.59V91.5547H623.844V96.3242H630.605V97.5195ZM639.688 98.5156H635.539V104H634.145V90.3477H638.984C640.555 90.3477 641.781 90.7148 642.664 91.4492C643.555 92.1836 644 93.1914 644 94.4727C644 95.3711 643.727 96.1562 643.18 96.8281C642.633 97.4922 641.91 97.9492 641.012 98.1992L644.621 103.883V104H643.121L639.688 98.5156ZM635.539 97.3203H639.242C640.258 97.3203 641.07 97.0586 641.68 96.5352C642.289 96.0117 642.594 95.3359 642.594 94.5078C642.594 93.5938 642.277 92.875 641.645 92.3516C641.02 91.8281 640.145 91.5625 639.02 91.5547H635.539V97.3203ZM648.992 104H647.586V90.3477H648.992V104ZM663.887 104H662.492L654.266 92.5508V104H652.871V90.3477H654.266L662.492 101.797V90.3477H663.887V104ZM678.184 102.371C677.879 102.777 677.422 103.129 676.812 103.426C675.758 103.934 674.5 104.188 673.039 104.188C671.266 104.188 669.832 103.613 668.738 102.465C667.645 101.316 667.098 99.7773 667.098 97.8477V96.3711C667.098 94.4805 667.613 92.9727 668.645 91.8477C669.676 90.7227 671.07 90.1602 672.828 90.1602C674.359 90.1602 675.582 90.5195 676.496 91.2383C677.418 91.957 677.977 92.9727 678.172 94.2852H676.777C676.605 93.3086 676.18 92.5781 675.5 92.0938C674.82 91.6094 673.934 91.3672 672.84 91.3672C671.496 91.3672 670.438 91.8086 669.664 92.6914C668.891 93.5742 668.504 94.8047 668.504 96.3828V97.9062C668.504 99.4531 668.914 100.691 669.734 101.621C670.555 102.543 671.66 103.004 673.051 103.004C673.855 103.004 674.59 102.91 675.254 102.723C675.926 102.527 676.438 102.254 676.789 101.902V98.5625H672.934V97.4141H678.184V102.371Z" fill="black"/>
</svg>
